HIERARCHY
ROOT Hips
{
	OFFSET 0.00 0.00 0.00
	CHANNELS 6 Xposition Yposition Zposition Yrotation Xrotation Zrotation
	JOINT Spine
	{
		OFFSET	0.0000	9.2263	1.5771
		CHANNELS 3 Xrotation Yrotation Zrotation
		JOINT Spine1
		{
			OFFSET	0.0000	16.2540	-0.1656
			CHANNELS 3 Xrotation Yrotation Zrotation
			JOINT Spine2
			{
				OFFSET	0.0000	13.6396	-1.2923
				CHANNELS 3 Xrotation Yrotation Zrotation
				JOINT Neck
				{
					OFFSET	0.0000	13.8774	-4.3542
					CHANNELS 3 Xrotation Yrotation Zrotation
					JOINT Neck1
					{
						OFFSET	0.0000	4.3400	0.9269
						CHANNELS 3 Xrotation Yrotation Zrotation
						JOINT Head
						{
							OFFSET	0.0000	4.0266	0.8585
							CHANNELS 3 Xrotation Yrotation Zrotation
							End Site
							{
								OFFSET 0.0000 23.0297 0.1231
							}
						}
					}
				}
				JOINT LeftShoulder
				{
					OFFSET	6.1442	10.1870	-3.7932
					CHANNELS 3 Zrotation Xrotation Yrotation
					JOINT LeftArm
					{
						OFFSET	12.3191	-1.1130	-1.7935
						CHANNELS 3 Zrotation Xrotation Yrotation
						JOINT LeftForeArm
						{
							OFFSET	27.6870	0.0000	0.0000
							CHANNELS 3 Xrotation Zrotation Yrotation
							JOINT LeftHand
							{
								OFFSET	27.8738	0.0000	0.0000
								CHANNELS 3 Zrotation Yrotation Xrotation
								JOINT LeftHandThumb1
								{
									OFFSET	2.3785	-1.0029	2.6209
									CHANNELS 3 Zrotation Xrotation Yrotation
									JOINT LeftHandThumb2
									{
										OFFSET	3.3624	-1.0029	2.8398
										CHANNELS 3 Zrotation Xrotation Yrotation
										JOINT LeftHandThumb3
										{
											OFFSET	4.5018	-1.3445	2.1783
											CHANNELS 3 Zrotation Xrotation Yrotation
											End Site
											{
												OFFSET 2.6000 -1.0000 1.0000
											}
										}
									}
								}
								JOINT LeftHandMiddle1
								{
									OFFSET	10.4639	0.6148	0.4298
									CHANNELS 3 Zrotation Xrotation Yrotation
									JOINT LeftHandMiddle2
									{
										OFFSET	5.7921	0.0000	0.0000
										CHANNELS 3 Zrotation Xrotation Yrotation
										JOINT LeftHandMiddle3
										{
											OFFSET	3.7132	0.0000	0.0000
											CHANNELS 3 Zrotation Xrotation Yrotation
											End Site
											{
												OFFSET 2.3000 0.0000 0.0000
											}
										}
									}
								}
								JOINT LeftHandIndex1
								{
									OFFSET	10.3945	0.6148	2.7055
									CHANNELS 3 Zrotation Xrotation Yrotation
									JOINT LeftHandIndex2
									{
										OFFSET	5.5493	0.0000	0.0000
										CHANNELS 3 Zrotation Xrotation Yrotation
										JOINT LeftHandIndex3
										{
											OFFSET	3.3911	0.0000	0.0000
											CHANNELS 3 Zrotation Xrotation Yrotation
											End Site
											{
												OFFSET 2.5000 0.0000 0.0000
											}
										}
									}
								}
								JOINT LeftHandRing1
								{
									OFFSET	10.3252	0.3211	-1.8755
									CHANNELS 3 Zrotation Xrotation Yrotation
									JOINT LeftHandRing2
									{
										OFFSET	5.4452	0.0000	0.0000
										CHANNELS 3 Zrotation Xrotation Yrotation
										JOINT LeftHandRing3
										{
											OFFSET	3.7132	0.0000	0.0000
											CHANNELS 3 Zrotation Xrotation Yrotation
											End Site
											{
												OFFSET 2.0000 0.0000 0.0000
											}
										}
									}
								}
								JOINT LeftHandPinky1
								{
									OFFSET	10.0130	-0.0783	-3.9671
									CHANNELS 3 Zrotation Xrotation Yrotation
									JOINT LeftHandPinky2
									{
										OFFSET	3.6763	0.0000	0.0000
										CHANNELS 3 Zrotation Xrotation Yrotation
										JOINT LeftHandPinky3
										{
											OFFSET	2.8113	0.0000	0.0000
											CHANNELS 3 Zrotation Xrotation Yrotation
											End Site
											{
												OFFSET 2.9000 0.0000 0.0000
											}
										}
									}
								}
							}
						}
					}
				}
				JOINT RightShoulder
				{
					OFFSET	-6.1402	10.1870	-3.7932
					CHANNELS 3 Zrotation Xrotation Yrotation
					JOINT RightArm
					{
						OFFSET	-12.3231	-1.1130	-1.7935
						CHANNELS 3 Zrotation Xrotation Yrotation
						JOINT RightForeArm
						{
							OFFSET	-27.6870	0.0000	0.0000
							CHANNELS 3 Xrotation Zrotation Yrotation
							JOINT RightHand
							{
								OFFSET	-27.8738	0.0000	0.0000
								CHANNELS 3 Zrotation Yrotation Xrotation
								JOINT RightHandThumb1
								{
									OFFSET	-2.5178	-0.9367	2.5137
									CHANNELS 3 Zrotation Xrotation Yrotation
									JOINT RightHandThumb2
									{
										OFFSET	-3.2638	-1.0870	2.9669
										CHANNELS 3 Zrotation Xrotation Yrotation
										JOINT RightHandThumb3
										{
											OFFSET	-4.4165	-1.3703	2.1350
											CHANNELS 3 Zrotation Xrotation Yrotation
											End Site
											{
												OFFSET -2.6000 -1.0000 1.0000
											}
										}
									}
								}
								JOINT RightHandIndex1
								{
									OFFSET	-10.4665	0.4896	2.7120
									CHANNELS 3 Zrotation Xrotation Yrotation
									JOINT RightHandIndex2
									{
										OFFSET	-5.3768	0.0000	0.0000
										CHANNELS 3 Zrotation Xrotation Yrotation
										JOINT RightHandIndex3
										{
											OFFSET	-3.3855	0.0000	0.0000
											CHANNELS 3 Zrotation Xrotation Yrotation
											End Site
											{
												OFFSET -2.6000 0.0000 0.0000
											}
										}
									}
								}
								JOINT RightHandMiddle1
								{
									OFFSET	-10.7596	0.4896	0.4278
									CHANNELS 3 Zrotation Xrotation Yrotation
									JOINT RightHandMiddle2
									{
										OFFSET	-5.6168	0.0000	0.0000
										CHANNELS 3 Zrotation Xrotation Yrotation
										JOINT RightHandMiddle3
										{
											OFFSET	-3.7364	0.0000	0.0000
											CHANNELS 3 Zrotation Xrotation Yrotation
											End Site
											{
												OFFSET -2.3000 0.0000 0.0000
											}
										}
									}
								}
								JOINT RightHandRing1
								{
									OFFSET	-10.4702	0.3879	-1.9363
									CHANNELS 3 Zrotation Xrotation Yrotation
									JOINT RightHandRing2
									{
										OFFSET	-5.4013	0.0000	0.0000
										CHANNELS 3 Zrotation Xrotation Yrotation
										JOINT RightHandRing3
										{
											OFFSET	-3.3916	0.0000	0.0000
											CHANNELS 3 Zrotation Xrotation Yrotation
											End Site
											{
												OFFSET -2.2000 0.0000 0.0000
											}
										}
									}
								}
								JOINT RightHandPinky1
								{
									OFFSET	-9.9715	-0.1191	-3.9540
									CHANNELS 3 Zrotation Xrotation Yrotation
									JOINT RightHandPinky2
									{
										OFFSET	-3.6528	0.0000	0.0000
										CHANNELS 3 Zrotation Xrotation Yrotation
										JOINT RightHandPinky3
										{
											OFFSET	-2.7820	0.0000	0.0000
											CHANNELS 3 Zrotation Xrotation Yrotation
											End Site
											{
												OFFSET -2.9000 0.0000 0.0000
											}
										}
									}
								}
							}
						}
					}
				}
			}
		}
	}
	JOINT LeftUpLeg
	{
		OFFSET	9.6338	-3.2733	0.0000
		CHANNELS 3 Xrotation Yrotation Zrotation
		JOINT LeftLeg
		{
			OFFSET	0.0000	-41.7300	-1.7300
			CHANNELS 3 Xrotation Yrotation Zrotation
			JOINT LeftFoot
			{
				OFFSET	0.0126	-39.1900	-0.8477
				CHANNELS 3 Xrotation Yrotation Zrotation
				JOINT LeftToeBase
				{
					OFFSET	-0.1833	-12.1931	8.2823
					CHANNELS 3 Xrotation Yrotation Zrotation
					End Site
					{
						OFFSET 0.0000 0.0000 10.1681
					}
				}
			}
		}
	}
	JOINT RightUpLeg
	{
		OFFSET	-9.6338	-3.2733	0.0000
		CHANNELS 3 Xrotation Yrotation Zrotation
		JOINT RightLeg
		{
			OFFSET	0.0000	-41.7300	-1.7300
			CHANNELS 3 Xrotation Yrotation Zrotation
			JOINT RightFoot
			{
				OFFSET	0.0126	-39.1900	-0.8477
				CHANNELS 3 Xrotation Yrotation Zrotation
				JOINT RightToeBase
				{
					OFFSET	-0.1833	-12.1931	8.2823
					CHANNELS 3 Xrotation Yrotation Zrotation
					End Site
					{
						OFFSET 0.0032 0.0000 10.1681
					}
				}
			}
		}
	}
}
MOTION
Frames: 4
Frame Time: 0.0333333
7.4684 80.6211 3.2740 -79.9790 6.1557 -4.5701 1.4317 0.3260 -9.3622 4.1557 -1.5263 -1.9464 4.1632 -1.8517 -1.8228 10.3002 1.7179 -2.0110 -0.0000 0.0000 -0.0000 -16.8136 14.2354 -8.6358 6.2085 -5.4134 -4.0671 -19.3749 -20.5651 -18.8070 -0.0000 -0.0000 -46.1172 -6.9171 -4.8851 11.2433 -20.6792 31.3997 34.9795 -19.6666 -20.2252 44.0431 -4.6206 -6.3729 24.0411 -94.6038 1.1790 1.2626 -98.9969 -1.1740 1.0028 -49.4908 -0.3558 0.7719 -94.6199 1.1787 1.2632 -98.9808 -1.1737 1.0028 -49.4908 -0.3558 0.7719 -94.6199 1.1787 1.2632 -98.9808 -1.1737 1.0028 -49.4908 -0.3558 0.7719 -94.5269 1.1840 5.3465 -99.0835 2.8609 1.6441 -49.4908 -0.3558 0.7719 10.0815 1.9999 24.7978 27.5590 -6.5573 41.0270 -0.0000 0.0000 127.3580 -11.4640 -0.2180 -9.0214 16.5055 48.1298 -26.8255 50.7553 10.7691 -52.2303 7.4268 19.3616 -14.0411 100.2836 -0.5662 -2.6846 102.9013 -2.7949 -2.2272 51.4510 -0.8610 -1.7868 100.2836 -0.5662 -2.6846 102.9013 -2.7949 -2.2272 51.4510 -0.8610 -1.7868 100.2836 -0.5662 -2.6846 102.9013 -2.7949 -2.2272 51.4510 -0.8610 -1.7868 100.2836 -0.5662 -2.6846 102.9013 -2.7949 -2.2272 51.4510 -0.8610 -1.7868 -31.6412 -9.6704 13.7740 75.5039 9.1870 1.4813 -20.3204 17.9547 -20.7554 -24.4153 -0.0000 -0.0000 -54.9463 10.4433 -4.9678 52.9420 7.4536 1.8603 -10.0479 23.5115 13.5261 -1.8155 -0.0000 -0.0006 
7.8174 80.8773 3.5886 -80.1291 6.8093 -3.4662 1.3322 -0.1400 -9.1222 4.1866 -2.1063 -1.5015 4.1751 -2.4049 -1.3434 9.8853 1.6064 -2.4698 -0.0000 0.0000 -0.0000 -17.5217 14.4590 -9.9722 3.8000 -4.6212 -6.3645 -25.9200 -27.6349 -18.7943 0.0000 -0.0000 -46.9493 -7.2164 -4.0221 17.7128 -20.6792 31.3997 34.9795 -19.6666 -20.2253 44.0431 -4.6206 -6.3729 24.0411 -94.6038 1.1790 1.2626 -98.9969 -1.1740 1.0028 -49.4908 -0.3558 0.7719 -94.6199 1.1786 1.2632 -98.9808 -1.1737 1.0028 -49.4908 -0.3558 0.7719 -94.6199 1.1786 1.2632 -98.9808 -1.1737 1.0028 -49.4908 -0.3558 0.7719 -94.5269 1.1840 5.3465 -99.0835 2.8609 1.6441 -49.4908 -0.3558 0.7719 9.9127 1.8907 25.6867 28.1086 -5.9750 41.7980 0.0000 0.0000 125.9194 -11.3118 0.0850 -8.1985 16.5054 48.1298 -26.8255 50.7553 10.7691 -52.2303 7.4268 19.3616 -14.0411 100.2836 -0.5662 -2.6846 102.9013 -2.7949 -2.2273 51.4510 -0.8610 -1.7868 100.2836 -0.5662 -2.6846 102.9013 -2.7949 -2.2273 51.4510 -0.8610 -1.7868 100.2836 -0.5662 -2.6846 102.9013 -2.7949 -2.2273 51.4510 -0.8610 -1.7868 100.2836 -0.5662 -2.6846 102.9013 -2.7949 -2.2273 51.4510 -0.8610 -1.7868 -32.2712 -6.6141 13.7407 74.1070 9.2002 1.6368 -22.1988 16.7937 -19.5897 -23.1638 0.0000 -0.0000 -55.2382 11.5043 -5.4167 52.2050 7.5852 1.2151 -9.6136 22.4581 14.1357 -1.8677 0.0000 -0.0005 
7.5951 81.5449 3.9299 -78.9213 7.4974 -1.9818 1.1030 -0.1070 -7.9469 3.8481 -1.6957 -1.1694 3.8593 -1.9201 -1.0244 9.6674 1.7902 -2.4122 -0.0000 0.0000 -0.0000 -17.4512 15.9511 -10.9225 0.5190 -3.6504 -2.0602 -34.2146 -31.0944 -19.5120 0.0000 0.0000 -52.3027 -6.3172 -3.5156 18.9463 -20.6792 31.3997 34.9795 -19.6666 -20.2252 44.0431 -4.6206 -6.3729 24.0411 -94.6038 1.1790 1.2626 -98.9969 -1.1740 1.0028 -49.4908 -0.3558 0.7719 -94.6199 1.1787 1.2632 -98.9809 -1.1737 1.0028 -49.4908 -0.3558 0.7719 -94.6199 1.1787 1.2632 -98.9809 -1.1737 1.0028 -49.4908 -0.3558 0.7719 -94.5269 1.1840 5.3465 -99.0835 2.8609 1.6441 -49.4908 -0.3558 0.7719 9.8865 1.7333 25.4118 29.0235 -5.6823 40.9971 0.0000 0.0000 125.7024 -11.3731 0.5891 -8.6493 16.5055 48.1298 -26.8255 50.7553 10.7691 -52.2303 7.4268 19.3616 -14.0411 100.2836 -0.5662 -2.6846 102.9013 -2.7949 -2.2272 51.4510 -0.8610 -1.7868 100.2836 -0.5662 -2.6846 102.9013 -2.7949 -2.2272 51.4510 -0.8610 -1.7868 100.2836 -0.5662 -2.6846 102.9013 -2.7949 -2.2272 51.4510 -0.8610 -1.7868 100.2836 -0.5662 -2.6846 102.9013 -2.7949 -2.2272 51.4510 -0.8610 -1.7868 -33.1270 -3.4585 13.2706 71.9917 9.4620 2.5818 -21.0377 14.4223 -19.7625 -22.2593 0.0000 -0.0000 -54.4309 13.3992 -6.3355 51.3899 6.7326 0.3812 -10.1523 21.1350 15.4012 -1.9153 -0.0000 -0.0002 
6.9272 82.7498 3.7930 -73.0363 7.9364 -1.0556 0.7904 -0.0137 -5.8897 3.3543 -0.8702 -0.3542 3.3742 -0.9971 -0.2435 9.5927 1.9188 -2.0847 -0.0000 0.0000 -0.0000 -16.0138 16.5649 -11.1523 -3.4941 -3.1418 3.2148 -40.8991 -26.2096 -19.6955 0.0000 0.0000 -67.0474 -4.8065 -3.4896 13.5472 -20.6792 31.3997 34.9795 -19.6666 -20.2252 44.0431 -4.6206 -6.3729 24.0411 -94.6038 1.1790 1.2625 -98.9969 -1.1740 1.0028 -49.4908 -0.3558 0.7719 -94.6199 1.1786 1.2632 -98.9808 -1.1737 1.0028 -49.4908 -0.3558 0.7719 -94.6199 1.1786 1.2632 -98.9808 -1.1737 1.0028 -49.4908 -0.3558 0.7719 -94.5269 1.1840 5.3465 -99.0835 2.8609 1.6441 -49.4908 -0.3558 0.7719 10.1322 1.6420 23.6697 30.2400 -3.5506 38.9757 -0.0000 0.0000 126.3052 -11.7119 1.7264 -8.7174 16.5055 48.1298 -26.8255 50.7553 10.7691 -52.2304 7.4268 19.3616 -14.0411 100.2836 -0.5662 -2.6846 102.9013 -2.7949 -2.2272 51.4510 -0.8610 -1.7868 100.2836 -0.5662 -2.6846 102.9013 -2.7949 -2.2272 51.4510 -0.8610 -1.7868 100.2836 -0.5662 -2.6846 102.9013 -2.7949 -2.2272 51.4510 -0.8610 -1.7868 100.2836 -0.5662 -2.6846 102.9013 -2.7949 -2.2272 51.4510 -0.8610 -1.7868 -33.8131 -2.7300 12.8081 68.3391 7.7027 3.7679 -18.7902 13.3402 -19.8506 -19.4987 0.0000 -0.0000 -51.1004 12.7655 -8.9723 50.1436 3.6992 -0.7743 -11.7893 19.8471 17.0766 -1.7394 0.0000 -0.0001 
